<svg xmlns="http://www.w3.org/2000/svg" version="1.1" width="755.9055118110235"  height="755.9055118110235"  >
<line x1="0.0" y1="755.9055118110235" x2="0.0" y2="0.0" style="stroke: #5f9b9c; stroke-width: 0.9448818897637795;" />
<line x1="37.79527559055118" y1="755.9055118110235" x2="37.79527559055118" y2="0.0" style="stroke: #5f9b9c; stroke-width: 0.9448818897637795;" />
<line x1="75.59055118110236" y1="755.9055118110235" x2="75.59055118110236" y2="0.0" style="stroke: #5f9b9c; stroke-width: 0.9448818897637795;" />
<line x1="113.38582677165354" y1="755.9055118110235" x2="113.38582677165354" y2="0.0" style="stroke: #5f9b9c; stroke-width: 0.9448818897637795;" />
<line x1="151.1811023622047" y1="755.9055118110235" x2="151.1811023622047" y2="0.0" style="stroke: #5f9b9c; stroke-width: 0.9448818897637795;" />
<line x1="188.97637795275588" y1="755.9055118110235" x2="188.97637795275588" y2="0.0" style="stroke: #5f9b9c; stroke-width: 0.9448818897637795;" />
<line x1="226.77165354330708" y1="755.9055118110235" x2="226.77165354330708" y2="0.0" style="stroke: #5f9b9c; stroke-width: 0.9448818897637795;" />
<line x1="264.56692913385825" y1="755.9055118110235" x2="264.56692913385825" y2="0.0" style="stroke: #5f9b9c; stroke-width: 0.9448818897637795;" />
<line x1="302.3622047244094" y1="755.9055118110235" x2="302.3622047244094" y2="0.0" style="stroke: #5f9b9c; stroke-width: 0.9448818897637795;" />
<line x1="340.1574803149606" y1="755.9055118110235" x2="340.1574803149606" y2="0.0" style="stroke: #5f9b9c; stroke-width: 0.9448818897637795;" />
<line x1="377.95275590551176" y1="755.9055118110235" x2="377.95275590551176" y2="0.0" style="stroke: #5f9b9c; stroke-width: 0.9448818897637795;" />
<line x1="415.74803149606294" y1="755.9055118110235" x2="415.74803149606294" y2="0.0" style="stroke: #5f9b9c; stroke-width: 0.9448818897637795;" />
<line x1="453.54330708661416" y1="755.9055118110235" x2="453.54330708661416" y2="0.0" style="stroke: #5f9b9c; stroke-width: 0.9448818897637795;" />
<line x1="491.33858267716533" y1="755.9055118110235" x2="491.33858267716533" y2="0.0" style="stroke: #5f9b9c; stroke-width: 0.9448818897637795;" />
<line x1="529.1338582677165" y1="755.9055118110235" x2="529.1338582677165" y2="0.0" style="stroke: #5f9b9c; stroke-width: 0.9448818897637795;" />
<line x1="566.9291338582676" y1="755.9055118110235" x2="566.9291338582676" y2="0.0" style="stroke: #5f9b9c; stroke-width: 0.9448818897637795;" />
<line x1="604.7244094488188" y1="755.9055118110235" x2="604.7244094488188" y2="0.0" style="stroke: #5f9b9c; stroke-width: 0.9448818897637795;" />
<line x1="642.5196850393701" y1="755.9055118110235" x2="642.5196850393701" y2="0.0" style="stroke: #5f9b9c; stroke-width: 0.9448818897637795;" />
<line x1="680.3149606299212" y1="755.9055118110235" x2="680.3149606299212" y2="0.0" style="stroke: #5f9b9c; stroke-width: 0.9448818897637795;" />
<line x1="718.1102362204724" y1="755.9055118110235" x2="718.1102362204724" y2="0.0" style="stroke: #5f9b9c; stroke-width: 0.9448818897637795;" />
<line x1="0.0" y1="755.9055118110235" x2="755.9055118110235" y2="755.9055118110235" style="stroke: #5f9b9c; stroke-width: 0.9448818897637795;" />
<line x1="0.0" y1="718.1102362204723" x2="755.9055118110235" y2="718.1102362204723" style="stroke: #5f9b9c; stroke-width: 0.9448818897637795;" />
<line x1="0.0" y1="680.3149606299212" x2="755.9055118110235" y2="680.3149606299212" style="stroke: #5f9b9c; stroke-width: 0.9448818897637795;" />
<line x1="0.0" y1="642.51968503937" x2="755.9055118110235" y2="642.51968503937" style="stroke: #5f9b9c; stroke-width: 0.9448818897637795;" />
<line x1="0.0" y1="604.7244094488188" x2="755.9055118110235" y2="604.7244094488188" style="stroke: #5f9b9c; stroke-width: 0.9448818897637795;" />
<line x1="0.0" y1="566.9291338582676" x2="755.9055118110235" y2="566.9291338582676" style="stroke: #5f9b9c; stroke-width: 0.9448818897637795;" />
<line x1="0.0" y1="529.1338582677165" x2="755.9055118110235" y2="529.1338582677165" style="stroke: #5f9b9c; stroke-width: 0.9448818897637795;" />
<line x1="0.0" y1="491.3385826771653" x2="755.9055118110235" y2="491.3385826771653" style="stroke: #5f9b9c; stroke-width: 0.9448818897637795;" />
<line x1="0.0" y1="453.5433070866141" x2="755.9055118110235" y2="453.5433070866141" style="stroke: #5f9b9c; stroke-width: 0.9448818897637795;" />
<line x1="0.0" y1="415.74803149606294" x2="755.9055118110235" y2="415.74803149606294" style="stroke: #5f9b9c; stroke-width: 0.9448818897637795;" />
<line x1="0.0" y1="377.95275590551176" x2="755.9055118110235" y2="377.95275590551176" style="stroke: #5f9b9c; stroke-width: 0.9448818897637795;" />
<line x1="0.0" y1="340.1574803149606" x2="755.9055118110235" y2="340.1574803149606" style="stroke: #5f9b9c; stroke-width: 0.9448818897637795;" />
<line x1="0.0" y1="302.36220472440937" x2="755.9055118110235" y2="302.36220472440937" style="stroke: #5f9b9c; stroke-width: 0.9448818897637795;" />
<line x1="0.0" y1="264.5669291338582" x2="755.9055118110235" y2="264.5669291338582" style="stroke: #5f9b9c; stroke-width: 0.9448818897637795;" />
<line x1="0.0" y1="226.77165354330702" x2="755.9055118110235" y2="226.77165354330702" style="stroke: #5f9b9c; stroke-width: 0.9448818897637795;" />
<line x1="0.0" y1="188.9763779527559" x2="755.9055118110235" y2="188.9763779527559" style="stroke: #5f9b9c; stroke-width: 0.9448818897637795;" />
<line x1="0.0" y1="151.18110236220468" x2="755.9055118110235" y2="151.18110236220468" style="stroke: #5f9b9c; stroke-width: 0.9448818897637795;" />
<line x1="0.0" y1="113.38582677165346" x2="755.9055118110235" y2="113.38582677165346" style="stroke: #5f9b9c; stroke-width: 0.9448818897637795;" />
<line x1="0.0" y1="75.59055118110234" x2="755.9055118110235" y2="75.59055118110234" style="stroke: #5f9b9c; stroke-width: 0.9448818897637795;" />
<line x1="0.0" y1="37.795275590551114" x2="755.9055118110235" y2="37.795275590551114" style="stroke: #5f9b9c; stroke-width: 0.9448818897637795;" />
<line x1="0.0" y1="377.95275590551176" x2="755.9055118110235" y2="377.95275590551176" style="stroke: red; stroke-width: 3.779527559055118;" />
<line x1="377.95275590551176" y1="755.9055118110235" x2="377.95275590551176" y2="0.0" style="stroke: green; stroke-width: 3.779527559055118;" />
<line x1="75.59055118110236" y1="75.59055118110234" x2="680.3149606299212" y2="680.3149606299212" style="stroke: #ffcccc; stroke-width: 1.889763779527559;" />
<line x1="75.59055118110236" y1="680.3149606299212" x2="680.3149606299212" y2="75.59055118110234" style="stroke: #ccccff; stroke-width: 1.889763779527559;" />
<text nox="380.55010895532183" noy="47.25429432219556" transform="translate( 380.55010895532183,47.25429432219556) rotate(0.45) " fill="#000000" font-family="monospace" font-size="8pt">0</text>
<line x1="377.95275590551176" y1="75.59055118110234" x2="377.95275590551176" y2="56.69291338582673" style="stroke: #000000; stroke-width: 1.889763779527559;" />
<line x1="383.2297039936353" y1="75.63660240940607" x2="383.42758954693994" y2="64.29974665330207" style="stroke: #000000; stroke-width: 1.889763779527559;" />
<line x1="388.50504467225227" y1="75.7747420666671" x2="388.900755501005" y2="64.44306654771037" style="stroke: #000000; stroke-width: 1.889763779527559;" />
<line x1="393.7771710214885" y1="76.00492807420756" x2="394.37058658833763" y2="64.68188453053364" style="stroke: #000000; stroke-width: 1.889763779527559;" />
<line x1="399.0444771005858" y1="76.32709031513974" x2="399.83541664540115" y2="65.01612785550077" style="stroke: #000000; stroke-width: 1.889763779527559;" />
<text nox="409.36249528760686" noy="48.73907604334943" transform="translate( 409.36249528760686,48.73907604334943) rotate(5.45) " fill="#000000" font-family="monospace" font-size="8pt">5</text>
<line x1="404.30535843708714" y1="76.74113065572413" x2="405.6229885636659" y2="61.68054939323474" style="stroke: #000000; stroke-width: 1.889763779527559;" />
<line x1="409.5582125155739" y1="77.24692297526224" x2="410.74341713845126" y2="65.97045424037782" style="stroke: #000000; stroke-width: 1.889763779527559;" />
<line x1="414.8014392658083" y1="77.84431320451364" x2="416.1832648918195" y2="66.5902466032262" style="stroke: #000000; stroke-width: 1.889763779527559;" />
<line x1="420.03344155012996" y1="78.53311937262754" x2="421.61146726180317" y2="67.30488300264432" style="stroke: #000000; stroke-width: 1.889763779527559;" />
<line x1="425.25262564995955" y1="79.31313166257252" x2="427.0263707653763" y2="68.11414575346225" style="stroke: #000000; stroke-width: 1.889763779527559;" />
<text nox="440.48825673681444" noy="53.21050446259346" transform="translate( 440.48825673681444,53.21050446259346) rotate(10.9) " fill="#000000" font-family="monospace" font-size="8pt">10</text>
<line x1="430.4574017512608" y1="80.18411247504889" x2="433.73894211662014" y2="61.57357226064494" style="stroke: #000000; stroke-width: 1.889763779527559;" />
<line x1="435.6461844288135" y1="81.14579650086381" x2="437.80968799843737" y2="70.01553552318944" style="stroke: #000000; stroke-width: 1.889763779527559;" />
<line x1="440.81739312914925" y1="82.19789080174695" x2="443.1748170250357" y2="71.10708336035572" style="stroke: #000000; stroke-width: 1.889763779527559;" />
<line x1="445.9694526520032" y1="83.34007489958242" x2="448.52007877999665" y2="72.29209936185998" style="stroke: #000000; stroke-width: 1.889763779527559;" />
<line x1="451.1007936301357" y1="84.57200087402941" x2="453.8438450448091" y2="73.57022256034878" style="stroke: #000000; stroke-width: 1.889763779527559;" />
<text nox="468.5534424022217" noy="59.89657479474903" transform="translate( 468.5534424022217,59.89657479474903) rotate(15.9) " fill="#000000" font-family="monospace" font-size="8pt">15</text>
<line x1="456.2098530073763" y1="85.89329346850218" x2="460.1227078624695" y2="71.29032034665164" style="stroke: #000000; stroke-width: 1.889763779527559;" />
<line x1="461.29507451474615" y1="87.30355020447678" x2="464.4204114625925" y2="76.40420499068796" style="stroke: #000000; stroke-width: 1.889763779527559;" />
<line x1="466.3549091445125" y1="88.80234150409007" x2="469.669989890975" y2="77.95920096403671" style="stroke: #000000; stroke-width: 1.889763779527559;" />
<line x1="471.3878156220313" y1="90.3892108209929" x2="474.8916303614008" y2="79.60557788032344" style="stroke: #000000; stroke-width: 1.889763779527559;" />
<line x1="476.39226087523474" y1="92.06367477941916" x2="480.0837423115994" y2="81.34283423719069" style="stroke: #000000; stroke-width: 1.889763779527559;" />
<text nox="495.9291021371989" noy="69.00324471273046" transform="translate( 495.9291021371989,69.00324471273046) rotate(20.9) " fill="#000000" font-family="monospace" font-size="8pt">20</text>
<line x1="481.3667205016195" y1="93.82522332142611" x2="487.83009328887624" y2="76.06725253492073" style="stroke: #000000; stroke-width: 1.889763779527559;" />
<line x1="486.3096792325947" y1="95.67331986226338" x2="490.3730638573603" y2="85.08784101064151" style="stroke: #000000; stroke-width: 1.889763779527559;" />
<line x1="491.2196313950474" y1="97.60740145382175" x2="495.46713922590493" y2="87.09445066188334" style="stroke: #000000; stroke-width: 1.889763779527559;" />
<line x1="496.09508136998505" y1="99.62687895611248" x2="500.5254185749028" y2="89.18965857051" style="stroke: #000000; stroke-width: 1.889763779527559;" />
<line x1="500.9345440481159" y1="101.73113721672536" x2="505.5463611034636" y2="91.37282651589584" style="stroke: #000000; stroke-width: 1.889763779527559;" />
<text nox="522.4068906412873" noy="80.46120695970416" transform="translate( 522.4068906412873,80.46120695970416) rotate(25.9) " fill="#000000" font-family="monospace" font-size="8pt">25</text>
<line x1="505.73654528222715" y1="103.91953525820975" x2="512.125734751063" y2="90.21787422584464" style="stroke: #000000; stroke-width: 1.889763779527559;" />
<line x1="510.49962233622495" y1="106.19140647332267" x2="515.4701298273767" y2="96.00035586961559" style="stroke: #000000; stroke-width: 1.889763779527559;" />
<line x1="515.2223243306976" y1="108.54605882808403" x2="520.3699331466421" y2="98.44330768768049" style="stroke: #000000; stroke-width: 1.889763779527559;" />
<line x1="519.9032126848678" y1="110.98277507257643" x2="525.2263548140936" y2="100.9714007913413" style="stroke: #000000; stroke-width: 1.889763779527559;" />
<line x1="524.540861554798" y1="113.50081295942675" x2="530.0379155166462" y2="103.58386509894854" style="stroke: #000000; stroke-width: 1.889763779527559;" />
<text nox="547.7852959562451" noy="94.183259524464" transform="translate( 547.7852959562451,94.183259524464) rotate(30.9) " fill="#000000" font-family="monospace" font-size="8pt">30</text>
<line x1="529.1338582677165" y1="116.09940546990202" x2="538.5826771653543" y2="99.7335710676764" style="stroke: #000000; stroke-width: 1.889763779527559;" />
<line x1="533.6808037523313" y1="118.77776104755026" x2="539.520605546587" y2="109.05869874037666" style="stroke: #000000; stroke-width: 1.889763779527559;" />
<line x1="538.1803129650004" y1="121.53506383931688" x2="544.1888463547314" y2="111.91940038683452" style="stroke: #000000; stroke-width: 1.889763779527559;" />
<line x1="542.6310153116301" y1="124.37047394406073" x2="548.8064500393597" y2="114.8611383705063" style="stroke: #000000; stroke-width: 1.889763779527559;" />
<line x1="547.0315550651707" y1="127.28312766839682" x2="553.3720100336578" y2="117.88301660950498" style="stroke: #000000; stroke-width: 1.889763779527559;" />
<text nox="571.8711730937255" noy="110.0649693013903" transform="translate( 571.8711730937255,110.0649693013903) rotate(35.9) " fill="#000000" font-family="monospace" font-size="8pt">35</text>
<line x1="551.380591778584" y1="130.27213778978512" x2="560.0519835722376" y2="117.88810688399877" style="stroke: #000000; stroke-width: 1.889763779527559;" />
<line x1="555.6768006931571" y1="133.33659382678752" x2="562.3414523726939" y2="124.16348774883534" style="stroke: #000000; stroke-width: 1.889763779527559;" />
<line x1="559.9188731420365" y1="136.47556231640908" x2="566.7426025384063" y2="127.42016755681769" style="stroke: #000000; stroke-width: 1.889763779527559;" />
<line x1="564.1055169488604" y1="139.68808709843992" x2="571.0862454879859" y2="130.75316201817472" style="stroke: #000000; stroke-width: 1.889763779527559;" />
<line x1="568.2354568213682" y1="142.97318960671114" x2="575.3710581057128" y2="134.16145587050607" style="stroke: #000000; stroke-width: 1.889763779527559;" />
<text nox="594.4812139852619" noy="127.98546688944205" transform="translate( 594.4812139852619,127.98546688944205) rotate(40.9) " fill="#000000" font-family="monospace" font-size="8pt">40</text>
<line x1="572.307434739867" y1="146.32986916717513" x2="584.4546021670142" y2="131.85343874602907" style="stroke: #000000; stroke-width: 1.889763779527559;" />
<line x1="576.3202103404368" y1="149.75710330272088" x2="583.7589898817465" y2="141.19976633011618" style="stroke: #000000; stroke-width: 1.889763779527559;" />
<line x1="580.272561292757" y1="153.2538480446304" x2="587.8595539947788" y2="144.8276389998473" style="stroke: #000000; stroke-width: 1.889763779527559;" />
<line x1="584.1632836724405" y1="156.8190382505815" x2="591.8961784637003" y2="148.5265238385216" style="stroke: #000000; stroke-width: 1.889763779527559;" />
<line x1="587.9911923277598" y1="160.45158792910075" x2="595.867633693594" y2="152.2952941299853" style="stroke: #000000; stroke-width: 1.889763779527559;" />
<text nox="615.4433425673537" noy="147.80836648128184" transform="translate( 615.4433425673537,147.80836648128184) rotate(45.9) " fill="#000000" font-family="monospace" font-size="8pt">45</text>
<line x1="591.7551212406569" y1="164.1503905703667" x2="602.4452395074142" y2="153.46027230360946" style="stroke: #000000; stroke-width: 1.889763779527559;" />
<line x1="595.4539238819228" y1="167.9143194832638" x2="603.6102176810382" y2="160.03787811742947" style="stroke: #000000; stroke-width: 1.889763779527559;" />
<line x1="599.0864735604421" y1="171.7422281385831" x2="607.3789879725019" y2="164.00933334732326" style="stroke: #000000; stroke-width: 1.889763779527559;" />
<line x1="602.6516637663931" y1="175.63295051826645" x2="611.0778728111762" y2="168.04595781624474" style="stroke: #000000; stroke-width: 1.889763779527559;" />
<line x1="606.1484085083026" y1="179.58530147058676" x2="614.7057454809074" y2="172.14652192927704" style="stroke: #000000; stroke-width: 1.889763779527559;" />
<text nox="634.598024384212" noy="169.38280384162184" transform="translate( 634.598024384212,169.38280384162184) rotate(50.9) " fill="#000000" font-family="monospace" font-size="8pt">50</text>
<line x1="609.5756426438484" y1="183.5980770711566" x2="624.0520730649945" y2="171.45090964400939" style="stroke: #000000; stroke-width: 1.889763779527559;" />
<line x1="612.9323222043124" y1="187.67005498965543" x2="621.7440559405175" y2="180.5344537053108" style="stroke: #000000; stroke-width: 1.889763779527559;" />
<line x1="616.2174247125836" y1="191.79999486216312" x2="625.1523497928488" y2="184.81926632303754" style="stroke: #000000; stroke-width: 1.889763779527559;" />
<line x1="619.4299494946144" y1="195.98663866898696" x2="628.4853442542059" y2="189.16290927261724" style="stroke: #000000; stroke-width: 1.889763779527559;" />
<line x1="622.568917984236" y1="200.22871111786637" x2="631.7420240621882" y2="193.56405943832962" style="stroke: #000000; stroke-width: 1.889763779527559;" />
<text nox="651.7994807412972" noy="192.54458447514838" transform="translate( 651.7994807412972,192.54458447514838) rotate(55.9) " fill="#000000" font-family="monospace" font-size="8pt">55</text>
<line x1="625.6333740212384" y1="204.52492003243958" x2="638.0174049270247" y2="195.85352823878597" style="stroke: #000000; stroke-width: 1.889763779527559;" />
<line x1="628.6223841426267" y1="208.87395674585287" x2="638.0224952015185" y2="202.53350177736564" style="stroke: #000000; stroke-width: 1.889763779527559;" />
<line x1="631.5350378669627" y1="213.27449649939336" x2="641.0443734405172" y2="207.09906177166388" style="stroke: #000000; stroke-width: 1.889763779527559;" />
<line x1="634.3704479717067" y1="217.72519884602306" x2="643.986111424189" y2="211.71666545629222" style="stroke: #000000; stroke-width: 1.889763779527559;" />
<line x1="637.1277507634733" y1="222.22470805869224" x2="646.8468130706469" y2="216.3849062644365" style="stroke: #000000; stroke-width: 1.889763779527559;" />
<text nox="666.916798169209" noy="217.11743324577478" transform="translate( 666.916798169209,217.11743324577478) rotate(60.9) " fill="#000000" font-family="monospace" font-size="8pt">60</text>
<line x1="639.8061063411216" y1="226.77165354330708" x2="656.1719407433472" y2="217.32283464566927" style="stroke: #000000; stroke-width: 1.889763779527559;" />
<line x1="642.4046988515968" y1="231.36465025622562" x2="652.321646712075" y2="225.86759629437736" style="stroke: #000000; stroke-width: 1.889763779527559;" />
<line x1="644.9227367384472" y1="236.0022991261558" x2="654.9341110196822" y2="230.67915699692995" style="stroke: #000000; stroke-width: 1.889763779527559;" />
<line x1="647.3594529829395" y1="240.68318748032598" x2="657.4622041233431" y2="235.53557866438152" style="stroke: #000000; stroke-width: 1.889763779527559;" />
<line x1="649.7141053377009" y1="245.4058894747986" x2="659.9051559414079" y2="240.43538198364683" style="stroke: #000000; stroke-width: 1.889763779527559;" />
<text nox="679.8349247542345" noy="242.91433593686483" transform="translate( 679.8349247542345,242.91433593686483) rotate(65.9) " fill="#000000" font-family="monospace" font-size="8pt">65</text>
<line x1="651.9859765528138" y1="250.16896652879637" x2="665.6876375851789" y2="243.77977705996057" style="stroke: #000000; stroke-width: 1.889763779527559;" />
<line x1="654.1743745942981" y1="254.9709677629076" x2="664.5326852951277" y2="250.35915070755993" style="stroke: #000000; stroke-width: 1.889763779527559;" />
<line x1="656.278632854911" y1="259.8104304410384" x2="666.7158532405135" y2="255.38009323612067" style="stroke: #000000; stroke-width: 1.889763779527559;" />
<line x1="658.2981103572017" y1="264.68588041597616" x2="668.8110611491402" y2="260.4383725851186" style="stroke: #000000; stroke-width: 1.889763779527559;" />
<line x1="660.2321919487601" y1="269.5958325784288" x2="670.8176708003821" y2="265.5324479536632" style="stroke: #000000; stroke-width: 1.889763779527559;" />
<text nox="690.4555457528841" noy="269.7389625423436" transform="translate( 690.4555457528841,269.7389625423436) rotate(70.9) " fill="#000000" font-family="monospace" font-size="8pt">70</text>
<line x1="662.0802884895975" y1="274.5387913094041" x2="679.8382592761028" y2="268.07541852214734" style="stroke: #000000; stroke-width: 1.889763779527559;" />
<line x1="663.8418370316044" y1="279.5132509357888" x2="674.5626775738328" y2="275.8217694994242" style="stroke: #000000; stroke-width: 1.889763779527559;" />
<line x1="665.5163009900307" y1="284.51769618899226" x2="676.2999339307" y2="281.0138814496228" style="stroke: #000000; stroke-width: 1.889763779527559;" />
<line x1="667.1031703069334" y1="289.55060266651105" x2="677.9463108469868" y2="286.23552192004854" style="stroke: #000000; stroke-width: 1.889763779527559;" />
<line x1="668.6019616065468" y1="294.6104372962774" x2="679.5013068203356" y2="291.48510034843105" style="stroke: #000000; stroke-width: 1.889763779527559;" />
<text nox="698.6978318264516" noy="297.387161456591" transform="translate( 698.6978318264516,297.387161456591) rotate(75.9) " fill="#000000" font-family="monospace" font-size="8pt">75</text>
<line x1="670.0122183425214" y1="299.69565880364723" x2="684.615191464372" y2="295.78280394855403" style="stroke: #000000; stroke-width: 1.889763779527559;" />
<line x1="671.3335109369941" y1="304.80471818088785" x2="682.3352892506748" y2="302.06166676621444" style="stroke: #000000; stroke-width: 1.889763779527559;" />
<line x1="672.5654369114411" y1="309.9360591590203" x2="683.6134124491635" y2="307.3854330310269" style="stroke: #000000; stroke-width: 1.889763779527559;" />
<line x1="673.7076210092766" y1="315.0881186818743" x2="684.7984284506679" y2="312.7306947859879" style="stroke: #000000; stroke-width: 1.889763779527559;" />
<line x1="674.7597153101597" y1="320.25932738221" x2="685.8899762878341" y2="318.0958238125862" style="stroke: #000000; stroke-width: 1.889763779527559;" />
<text nox="704.4990542010887" noy="325.64851319143065" transform="translate( 704.4990542010887,325.64851319143065) rotate(80.9) " fill="#000000" font-family="monospace" font-size="8pt">80</text>
<line x1="675.7213993359746" y1="325.44811005976277" x2="694.3319395503786" y2="322.16656969440345" style="stroke: #000000; stroke-width: 1.889763779527559;" />
<line x1="676.592380148451" y1="330.65288616106403" x2="687.7913660575613" y2="328.8791410456472" style="stroke: #000000; stroke-width: 1.889763779527559;" />
<line x1="677.372392438396" y1="335.87207026089357" x2="688.6006288083793" y2="334.29404454922036" style="stroke: #000000; stroke-width: 1.889763779527559;" />
<line x1="678.0611986065098" y1="341.1040725452152" x2="689.3152652077973" y2="339.72224691920405" style="stroke: #000000; stroke-width: 1.889763779527559;" />
<line x1="678.6585888357613" y1="346.3472992954496" x2="689.9350575706458" y2="345.16209467257227" style="stroke: #000000; stroke-width: 1.889763779527559;" />
<text nox="707.8150620716507" noy="354.3079317954897" transform="translate( 707.8150620716507,354.3079317954897) rotate(85.9) " fill="#000000" font-family="monospace" font-size="8pt">85</text>
<line x1="679.1643811552995" y1="351.6001533739364" x2="694.2249624177888" y2="350.28252324735763" style="stroke: #000000; stroke-width: 1.889763779527559;" />
<line x1="679.5784214958837" y1="356.86103471043765" x2="690.8893839555228" y2="356.0700951656224" style="stroke: #000000; stroke-width: 1.889763779527559;" />
<line x1="679.900583736816" y1="362.12834078953506" x2="691.2236272804898" y2="361.5349252226859" style="stroke: #000000; stroke-width: 1.889763779527559;" />
<line x1="680.1307697443565" y1="367.4004671387713" x2="691.4624452633132" y2="367.00475631001854" style="stroke: #000000; stroke-width: 1.889763779527559;" />
<line x1="680.2689094016175" y1="372.67580781738826" x2="691.6057651577214" y2="372.4779222640836" style="stroke: #000000; stroke-width: 1.889763779527559;" />
<text nox="708.588887448374" noy="384.8785955519763" transform="translate( 708.588887448374,384.8785955519763) rotate(91.2) " fill="#000000" font-family="monospace" font-size="8pt">90</text>
<line x1="680.3149606299212" y1="377.95275590551176" x2="699.2125984251968" y2="377.95275590551176" style="stroke: #000000; stroke-width: 1.889763779527559;" />
<line x1="680.2689094016175" y1="383.22970399363527" x2="691.6057651577214" y2="383.42758954693994" style="stroke: #000000; stroke-width: 1.889763779527559;" />
<line x1="680.1307697443565" y1="388.5050446722522" x2="691.4624452633132" y2="388.900755501005" style="stroke: #000000; stroke-width: 1.889763779527559;" />
<line x1="679.900583736816" y1="393.77717102148847" x2="691.2236272804898" y2="394.37058658833763" style="stroke: #000000; stroke-width: 1.889763779527559;" />
<line x1="679.5784214958837" y1="399.0444771005859" x2="690.8893839555228" y2="399.83541664540115" style="stroke: #000000; stroke-width: 1.889763779527559;" />
<text nox="706.9095930623726" noy="411.9471381501131" transform="translate( 706.9095930623726,411.9471381501131) rotate(95.9) " fill="#000000" font-family="monospace" font-size="8pt">95</text>
<line x1="679.1643811552995" y1="404.30535843708714" x2="694.2249624177888" y2="405.6229885636659" style="stroke: #000000; stroke-width: 1.889763779527559;" />
<line x1="678.6585888357613" y1="409.5582125155739" x2="689.9350575706458" y2="410.74341713845126" style="stroke: #000000; stroke-width: 1.889763779527559;" />
<line x1="678.0611986065098" y1="414.8014392658083" x2="689.3152652077973" y2="416.1832648918195" style="stroke: #000000; stroke-width: 1.889763779527559;" />
<line x1="677.372392438396" y1="420.03344155012996" x2="688.6006288083793" y2="421.61146726180317" style="stroke: #000000; stroke-width: 1.889763779527559;" />
<line x1="676.592380148451" y1="425.2526256499595" x2="687.7913660575613" y2="427.0263707653763" style="stroke: #000000; stroke-width: 1.889763779527559;" />
<text nox="702.0223432604317" noy="443.8854586261597" transform="translate( 702.0223432604317,443.8854586261597) rotate(101.5) " fill="#000000" font-family="monospace" font-size="8pt">100</text>
<line x1="675.7213993359746" y1="430.45740175126076" x2="694.3319395503786" y2="433.7389421166201" style="stroke: #000000; stroke-width: 1.889763779527559;" />
<line x1="674.7597153101597" y1="435.6461844288135" x2="685.8899762878341" y2="437.8096879984373" style="stroke: #000000; stroke-width: 1.889763779527559;" />
<line x1="673.7076210092766" y1="440.81739312914925" x2="684.7984284506679" y2="443.1748170250356" style="stroke: #000000; stroke-width: 1.889763779527559;" />
<line x1="672.5654369114411" y1="445.9694526520032" x2="683.6134124491635" y2="448.52007877999665" style="stroke: #000000; stroke-width: 1.889763779527559;" />
<line x1="671.3335109369941" y1="451.1007936301357" x2="682.3352892506748" y2="453.8438450448091" style="stroke: #000000; stroke-width: 1.889763779527559;" />
<text nox="695.0427469642842" noy="471.87909037452556" transform="translate( 695.0427469642842,471.87909037452556) rotate(106.5) " fill="#000000" font-family="monospace" font-size="8pt">105</text>
<line x1="670.0122183425214" y1="456.2098530073763" x2="684.615191464372" y2="460.1227078624695" style="stroke: #000000; stroke-width: 1.889763779527559;" />
<line x1="668.6019616065468" y1="461.29507451474615" x2="679.5013068203356" y2="464.4204114625925" style="stroke: #000000; stroke-width: 1.889763779527559;" />
<line x1="667.1031703069334" y1="466.3549091445125" x2="677.9463108469868" y2="469.669989890975" style="stroke: #000000; stroke-width: 1.889763779527559;" />
<line x1="665.5163009900307" y1="471.38781562203127" x2="676.2999339307" y2="474.89163036140076" style="stroke: #000000; stroke-width: 1.889763779527559;" />
<line x1="663.8418370316044" y1="476.39226087523474" x2="674.5626775738328" y2="480.08374231159934" style="stroke: #000000; stroke-width: 1.889763779527559;" />
<text nox="685.649904372008" noy="499.15788600331086" transform="translate( 685.649904372008,499.15788600331086) rotate(111.5) " fill="#000000" font-family="monospace" font-size="8pt">110</text>
<line x1="662.0802884895975" y1="481.36672050161945" x2="679.8382592761028" y2="487.8300932888762" style="stroke: #000000; stroke-width: 1.889763779527559;" />
<line x1="660.2321919487601" y1="486.3096792325947" x2="670.8176708003821" y2="490.3730638573603" style="stroke: #000000; stroke-width: 1.889763779527559;" />
<line x1="658.2981103572017" y1="491.2196313950474" x2="668.8110611491402" y2="495.46713922590493" style="stroke: #000000; stroke-width: 1.889763779527559;" />
<line x1="656.278632854911" y1="496.0950813699851" x2="666.7158532405135" y2="500.52541857490286" style="stroke: #000000; stroke-width: 1.889763779527559;" />
<line x1="654.1743745942981" y1="500.9345440481159" x2="664.5326852951277" y2="505.5463611034636" style="stroke: #000000; stroke-width: 1.889763779527559;" />
<text nox="673.9153006872839" noy="525.5142374063934" transform="translate( 673.9153006872839,525.5142374063934) rotate(116.5) " fill="#000000" font-family="monospace" font-size="8pt">115</text>
<line x1="651.9859765528138" y1="505.73654528222715" x2="665.6876375851789" y2="512.125734751063" style="stroke: #000000; stroke-width: 1.889763779527559;" />
<line x1="649.7141053377009" y1="510.4996223362249" x2="659.9051559414079" y2="515.4701298273767" style="stroke: #000000; stroke-width: 1.889763779527559;" />
<line x1="647.3594529829395" y1="515.2223243306976" x2="657.4622041233431" y2="520.369933146642" style="stroke: #000000; stroke-width: 1.889763779527559;" />
<line x1="644.9227367384472" y1="519.9032126848678" x2="654.9341110196822" y2="525.2263548140936" style="stroke: #000000; stroke-width: 1.889763779527559;" />
<line x1="642.4046988515968" y1="524.5408615547979" x2="652.321646712075" y2="530.0379155166462" style="stroke: #000000; stroke-width: 1.889763779527559;" />
<text nox="659.9282433296996" noy="550.7475568351956" transform="translate( 659.9282433296996,550.7475568351956) rotate(121.5) " fill="#000000" font-family="monospace" font-size="8pt">120</text>
<line x1="639.8061063411216" y1="529.1338582677165" x2="656.1719407433472" y2="538.5826771653542" style="stroke: #000000; stroke-width: 1.889763779527559;" />
<line x1="637.1277507634733" y1="533.6808037523313" x2="646.8468130706469" y2="539.520605546587" style="stroke: #000000; stroke-width: 1.889763779527559;" />
<line x1="634.3704479717067" y1="538.1803129650004" x2="643.986111424189" y2="544.1888463547314" style="stroke: #000000; stroke-width: 1.889763779527559;" />
<line x1="631.5350378669627" y1="542.6310153116301" x2="641.0443734405172" y2="548.8064500393597" style="stroke: #000000; stroke-width: 1.889763779527559;" />
<line x1="628.6223841426267" y1="547.0315550651707" x2="638.0224952015185" y2="553.372010033658" style="stroke: #000000; stroke-width: 1.889763779527559;" />
<text nox="643.795182251363" noy="574.6658034925695" transform="translate( 643.795182251363,574.6658034925695) rotate(126.5) " fill="#000000" font-family="monospace" font-size="8pt">125</text>
<line x1="625.6333740212384" y1="551.380591778584" x2="638.0174049270247" y2="560.0519835722375" style="stroke: #000000; stroke-width: 1.889763779527559;" />
<line x1="622.568917984236" y1="555.6768006931571" x2="631.7420240621882" y2="562.3414523726939" style="stroke: #000000; stroke-width: 1.889763779527559;" />
<line x1="619.4299494946144" y1="559.9188731420365" x2="628.4853442542059" y2="566.7426025384063" style="stroke: #000000; stroke-width: 1.889763779527559;" />
<line x1="616.2174247125836" y1="564.1055169488604" x2="625.1523497928488" y2="571.0862454879859" style="stroke: #000000; stroke-width: 1.889763779527559;" />
<line x1="612.9323222043124" y1="568.2354568213681" x2="621.7440559405175" y2="575.3710581057128" style="stroke: #000000; stroke-width: 1.889763779527559;" />
<text nox="625.6388997884889" noy="597.0869450792202" transform="translate( 625.6388997884889,597.0869450792202) rotate(131.5) " fill="#000000" font-family="monospace" font-size="8pt">130</text>
<line x1="609.5756426438484" y1="572.307434739867" x2="624.0520730649945" y2="584.4546021670142" style="stroke: #000000; stroke-width: 1.889763779527559;" />
<line x1="606.1484085083026" y1="576.3202103404368" x2="614.7057454809074" y2="583.7589898817465" style="stroke: #000000; stroke-width: 1.889763779527559;" />
<line x1="602.6516637663931" y1="580.272561292757" x2="611.0778728111762" y2="587.8595539947788" style="stroke: #000000; stroke-width: 1.889763779527559;" />
<line x1="599.0864735604421" y1="584.1632836724405" x2="607.3789879725019" y2="591.8961784637003" style="stroke: #000000; stroke-width: 1.889763779527559;" />
<line x1="595.4539238819228" y1="587.9911923277598" x2="603.6102176810382" y2="595.867633693594" style="stroke: #000000; stroke-width: 1.889763779527559;" />
<text nox="605.5975762136824" noy="617.8403431694179" transform="translate( 605.5975762136824,617.8403431694179) rotate(136.5) " fill="#000000" font-family="monospace" font-size="8pt">135</text>
<line x1="591.7551212406569" y1="591.7551212406568" x2="602.4452395074142" y2="602.445239507414" style="stroke: #000000; stroke-width: 1.889763779527559;" />
<line x1="587.9911923277598" y1="595.4539238819227" x2="595.867633693594" y2="603.6102176810382" style="stroke: #000000; stroke-width: 1.889763779527559;" />
<line x1="584.1632836724405" y1="599.0864735604421" x2="591.8961784637003" y2="607.3789879725019" style="stroke: #000000; stroke-width: 1.889763779527559;" />
<line x1="580.272561292757" y1="602.6516637663931" x2="587.8595539947788" y2="611.0778728111762" style="stroke: #000000; stroke-width: 1.889763779527559;" />
<line x1="576.3202103404368" y1="606.1484085083026" x2="583.7589898817465" y2="614.7057454809074" style="stroke: #000000; stroke-width: 1.889763779527559;" />
<text nox="583.82373810063" noy="636.7680518724517" transform="translate( 583.82373810063,636.7680518724517) rotate(141.5) " fill="#000000" font-family="monospace" font-size="8pt">140</text>
<line x1="572.307434739867" y1="609.5756426438484" x2="584.4546021670142" y2="624.0520730649945" style="stroke: #000000; stroke-width: 1.889763779527559;" />
<line x1="568.2354568213682" y1="612.9323222043124" x2="575.3710581057128" y2="621.7440559405175" style="stroke: #000000; stroke-width: 1.889763779527559;" />
<line x1="564.1055169488604" y1="616.2174247125836" x2="571.0862454879859" y2="625.1523497928488" style="stroke: #000000; stroke-width: 1.889763779527559;" />
<line x1="559.9188731420365" y1="619.4299494946144" x2="566.7426025384063" y2="628.4853442542059" style="stroke: #000000; stroke-width: 1.889763779527559;" />
<line x1="555.6768006931571" y1="622.568917984236" x2="562.3414523726939" y2="631.7420240621882" style="stroke: #000000; stroke-width: 1.889763779527559;" />
<text nox="560.4830975047751" noy="653.7260198962288" transform="translate( 560.4830975047751,653.7260198962288) rotate(146.5) " fill="#000000" font-family="monospace" font-size="8pt">145</text>
<line x1="551.380591778584" y1="625.6333740212384" x2="560.0519835722376" y2="638.0174049270247" style="stroke: #000000; stroke-width: 1.889763779527559;" />
<line x1="547.0315550651707" y1="628.6223841426267" x2="553.3720100336578" y2="638.0224952015185" style="stroke: #000000; stroke-width: 1.889763779527559;" />
<line x1="542.6310153116301" y1="631.5350378669627" x2="548.8064500393597" y2="641.0443734405172" style="stroke: #000000; stroke-width: 1.889763779527559;" />
<line x1="538.1803129650004" y1="634.3704479717067" x2="544.1888463547314" y2="643.986111424189" style="stroke: #000000; stroke-width: 1.889763779527559;" />
<line x1="533.6808037523313" y1="637.1277507634733" x2="539.520605546587" y2="646.8468130706469" style="stroke: #000000; stroke-width: 1.889763779527559;" />
<text nox="535.753290794516" noy="668.5851868645868" transform="translate( 535.753290794516,668.5851868645868) rotate(151.5) " fill="#000000" font-family="monospace" font-size="8pt">150</text>
<line x1="529.1338582677165" y1="639.8061063411214" x2="538.5826771653543" y2="656.1719407433471" style="stroke: #000000; stroke-width: 1.889763779527559;" />
<line x1="524.540861554798" y1="642.4046988515968" x2="530.0379155166462" y2="652.321646712075" style="stroke: #000000; stroke-width: 1.889763779527559;" />
<line x1="519.9032126848678" y1="644.9227367384472" x2="525.2263548140936" y2="654.9341110196822" style="stroke: #000000; stroke-width: 1.889763779527559;" />
<line x1="515.2223243306976" y1="647.3594529829395" x2="520.3699331466421" y2="657.4622041233431" style="stroke: #000000; stroke-width: 1.889763779527559;" />
<line x1="510.49962233622495" y1="649.7141053377009" x2="515.4701298273767" y2="659.9051559414079" style="stroke: #000000; stroke-width: 1.889763779527559;" />
<text nox="509.82252673118376" noy="681.2324655446866" transform="translate( 509.82252673118376,681.2324655446866) rotate(156.5) " fill="#000000" font-family="monospace" font-size="8pt">155</text>
<line x1="505.73654528222715" y1="651.9859765528138" x2="512.125734751063" y2="665.6876375851789" style="stroke: #000000; stroke-width: 1.889763779527559;" />
<line x1="500.9345440481159" y1="654.1743745942981" x2="505.5463611034636" y2="664.5326852951277" style="stroke: #000000; stroke-width: 1.889763779527559;" />
<line x1="496.09508136998505" y1="656.278632854911" x2="500.5254185749028" y2="666.7158532405135" style="stroke: #000000; stroke-width: 1.889763779527559;" />
<line x1="491.2196313950474" y1="658.2981103572017" x2="495.46713922590493" y2="668.8110611491402" style="stroke: #000000; stroke-width: 1.889763779527559;" />
<line x1="486.3096792325947" y1="660.2321919487601" x2="490.3730638573603" y2="670.8176708003821" style="stroke: #000000; stroke-width: 1.889763779527559;" />
<text nox="482.8881540867233" noy="691.5716025091367" transform="translate( 482.8881540867233,691.5716025091367) rotate(161.5) " fill="#000000" font-family="monospace" font-size="8pt">160</text>
<line x1="481.3667205016195" y1="662.0802884895975" x2="487.83009328887624" y2="679.8382592761028" style="stroke: #000000; stroke-width: 1.889763779527559;" />
<line x1="476.39226087523474" y1="663.8418370316044" x2="480.0837423115994" y2="674.5626775738328" style="stroke: #000000; stroke-width: 1.889763779527559;" />
<line x1="471.3878156220313" y1="665.5163009900307" x2="474.8916303614008" y2="676.2999339307" style="stroke: #000000; stroke-width: 1.889763779527559;" />
<line x1="466.3549091445125" y1="667.1031703069334" x2="469.669989890975" y2="677.9463108469868" style="stroke: #000000; stroke-width: 1.889763779527559;" />
<line x1="461.29507451474615" y1="668.6019616065468" x2="464.4204114625925" y2="679.5013068203356" style="stroke: #000000; stroke-width: 1.889763779527559;" />
<text nox="455.15515970037814" noy="699.5239106826962" transform="translate( 455.15515970037814,699.5239106826962) rotate(166.5) " fill="#000000" font-family="monospace" font-size="8pt">165</text>
<line x1="456.2098530073763" y1="670.0122183425214" x2="460.1227078624695" y2="684.615191464372" style="stroke: #000000; stroke-width: 1.889763779527559;" />
<line x1="451.1007936301357" y1="671.3335109369941" x2="453.8438450448091" y2="682.3352892506748" style="stroke: #000000; stroke-width: 1.889763779527559;" />
<line x1="445.9694526520032" y1="672.5654369114411" x2="448.52007877999665" y2="683.6134124491635" style="stroke: #000000; stroke-width: 1.889763779527559;" />
<line x1="440.81739312914925" y1="673.7076210092766" x2="443.1748170250357" y2="684.7984284506679" style="stroke: #000000; stroke-width: 1.889763779527559;" />
<line x1="435.6461844288135" y1="674.7597153101597" x2="437.80968799843737" y2="685.8899762878341" style="stroke: #000000; stroke-width: 1.889763779527559;" />
<text nox="426.834608405068" noy="705.0288681984291" transform="translate( 426.834608405068,705.0288681984291) rotate(171.5) " fill="#000000" font-family="monospace" font-size="8pt">170</text>
<line x1="430.4574017512608" y1="675.7213993359746" x2="433.73894211662014" y2="694.3319395503786" style="stroke: #000000; stroke-width: 1.889763779527559;" />
<line x1="425.25262564995955" y1="676.592380148451" x2="427.0263707653763" y2="687.7913660575613" style="stroke: #000000; stroke-width: 1.889763779527559;" />
<line x1="420.03344155012996" y1="677.372392438396" x2="421.61146726180317" y2="688.6006288083793" style="stroke: #000000; stroke-width: 1.889763779527559;" />
<line x1="414.8014392658083" y1="678.0611986065098" x2="416.1832648918195" y2="689.3152652077973" style="stroke: #000000; stroke-width: 1.889763779527559;" />
<line x1="409.5582125155739" y1="678.6585888357613" x2="410.74341713845126" y2="689.9350575706458" style="stroke: #000000; stroke-width: 1.889763779527559;" />
<text nox="398.1420366965668" noy="708.0445790056567" transform="translate( 398.1420366965668,708.0445790056567) rotate(176.5) " fill="#000000" font-family="monospace" font-size="8pt">175</text>
<line x1="404.30535843708714" y1="679.1643811552995" x2="405.6229885636659" y2="694.2249624177888" style="stroke: #000000; stroke-width: 1.889763779527559;" />
<line x1="399.0444771005858" y1="679.5784214958837" x2="399.83541664540115" y2="690.8893839555228" style="stroke: #000000; stroke-width: 1.889763779527559;" />
<line x1="393.7771710214885" y1="679.900583736816" x2="394.37058658833763" y2="691.2236272804898" style="stroke: #000000; stroke-width: 1.889763779527559;" />
<line x1="388.50504467225227" y1="680.1307697443565" x2="388.900755501005" y2="691.4624452633132" style="stroke: #000000; stroke-width: 1.889763779527559;" />
<line x1="383.2297039936353" y1="680.2689094016175" x2="383.42758954693994" y2="691.6057651577214" style="stroke: #000000; stroke-width: 1.889763779527559;" />
<text nox="369.2958123706246" noy="708.5480917241999" transform="translate( 369.2958123706246,708.5480917241999) rotate(181.5) " fill="#000000" font-family="monospace" font-size="8pt">180</text>
<line x1="377.95275590551176" y1="680.3149606299212" x2="377.95275590551176" y2="699.2125984251968" style="stroke: #000000; stroke-width: 1.889763779527559;" />
<line x1="372.67580781738826" y1="680.2689094016175" x2="372.47792226408365" y2="691.6057651577214" style="stroke: #000000; stroke-width: 1.889763779527559;" />
<line x1="367.4004671387713" y1="680.1307697443565" x2="367.00475631001854" y2="691.4624452633132" style="stroke: #000000; stroke-width: 1.889763779527559;" />
<line x1="362.12834078953506" y1="679.900583736816" x2="361.5349252226859" y2="691.2236272804898" style="stroke: #000000; stroke-width: 1.889763779527559;" />
<line x1="356.86103471043765" y1="679.5784214958837" x2="356.0700951656224" y2="690.8893839555228" style="stroke: #000000; stroke-width: 1.889763779527559;" />
<text nox="340.5154726121883" noy="706.5355743182414" transform="translate( 340.5154726121883,706.5355743182414) rotate(186.5) " fill="#000000" font-family="monospace" font-size="8pt">185</text>
<line x1="351.60015337393634" y1="679.1643811552995" x2="350.2825232473576" y2="694.2249624177888" style="stroke: #000000; stroke-width: 1.889763779527559;" />
<line x1="346.3472992954496" y1="678.6585888357613" x2="345.16209467257227" y2="689.9350575706458" style="stroke: #000000; stroke-width: 1.889763779527559;" />
<line x1="341.1040725452152" y1="678.0611986065098" x2="339.7222469192041" y2="689.3152652077974" style="stroke: #000000; stroke-width: 1.889763779527559;" />
<line x1="335.87207026089357" y1="677.372392438396" x2="334.2940445492204" y2="688.6006288083793" style="stroke: #000000; stroke-width: 1.889763779527559;" />
<line x1="330.65288616106403" y1="676.592380148451" x2="328.8791410456472" y2="687.7913660575613" style="stroke: #000000; stroke-width: 1.889763779527559;" />
<text nox="312.0200531848639" noy="702.0223432604317" transform="translate( 312.0200531848639,702.0223432604317) rotate(191.5) " fill="#000000" font-family="monospace" font-size="8pt">190</text>
<line x1="325.44811005976277" y1="675.7213993359746" x2="322.16656969440345" y2="694.3319395503786" style="stroke: #000000; stroke-width: 1.889763779527559;" />
<line x1="320.25932738221" y1="674.7597153101597" x2="318.0958238125862" y2="685.8899762878341" style="stroke: #000000; stroke-width: 1.889763779527559;" />
<line x1="315.0881186818743" y1="673.7076210092766" x2="312.7306947859879" y2="684.7984284506679" style="stroke: #000000; stroke-width: 1.889763779527559;" />
<line x1="309.9360591590203" y1="672.5654369114411" x2="307.3854330310269" y2="683.6134124491635" style="stroke: #000000; stroke-width: 1.889763779527559;" />
<line x1="304.8047181808878" y1="671.3335109369941" x2="302.0616667662144" y2="682.3352892506748" style="stroke: #000000; stroke-width: 1.889763779527559;" />
<text nox="284.02642143649797" noy="695.0427469642842" transform="translate( 284.02642143649797,695.0427469642842) rotate(196.5) " fill="#000000" font-family="monospace" font-size="8pt">195</text>
<line x1="299.69565880364723" y1="670.0122183425214" x2="295.782803948554" y2="684.615191464372" style="stroke: #000000; stroke-width: 1.889763779527559;" />
<line x1="294.6104372962774" y1="668.6019616065468" x2="291.4851003484311" y2="679.5013068203356" style="stroke: #000000; stroke-width: 1.889763779527559;" />
<line x1="289.55060266651105" y1="667.1031703069335" x2="286.23552192004854" y2="677.9463108469869" style="stroke: #000000; stroke-width: 1.889763779527559;" />
<line x1="284.51769618899226" y1="665.5163009900307" x2="281.0138814496228" y2="676.2999339307001" style="stroke: #000000; stroke-width: 1.889763779527559;" />
<line x1="279.51325093578885" y1="663.8418370316044" x2="275.8217694994242" y2="674.5626775738328" style="stroke: #000000; stroke-width: 1.889763779527559;" />
<text nox="256.7476258077127" noy="685.649904372008" transform="translate( 256.7476258077127,685.649904372008) rotate(201.5) " fill="#000000" font-family="monospace" font-size="8pt">200</text>
<line x1="274.5387913094041" y1="662.0802884895975" x2="268.07541852214734" y2="679.8382592761028" style="stroke: #000000; stroke-width: 1.889763779527559;" />
<line x1="269.5958325784288" y1="660.2321919487601" x2="265.5324479536632" y2="670.8176708003821" style="stroke: #000000; stroke-width: 1.889763779527559;" />
<line x1="264.68588041597616" y1="658.2981103572017" x2="260.43837258511854" y2="668.8110611491402" style="stroke: #000000; stroke-width: 1.889763779527559;" />
<line x1="259.8104304410384" y1="656.2786328549109" x2="255.38009323612067" y2="666.7158532405135" style="stroke: #000000; stroke-width: 1.889763779527559;" />
<line x1="254.9709677629076" y1="654.1743745942981" x2="250.35915070755993" y2="664.5326852951277" style="stroke: #000000; stroke-width: 1.889763779527559;" />
<text nox="230.39127440463014" noy="673.9153006872838" transform="translate( 230.39127440463014,673.9153006872838) rotate(206.5) " fill="#000000" font-family="monospace" font-size="8pt">205</text>
<line x1="250.16896652879637" y1="651.9859765528138" x2="243.7797770599606" y2="665.6876375851789" style="stroke: #000000; stroke-width: 1.889763779527559;" />
<line x1="245.40588947479858" y1="649.7141053377009" x2="240.4353819836468" y2="659.9051559414079" style="stroke: #000000; stroke-width: 1.889763779527559;" />
<line x1="240.683187480326" y1="647.3594529829395" x2="235.53557866438152" y2="657.4622041233431" style="stroke: #000000; stroke-width: 1.889763779527559;" />
<line x1="236.00229912615578" y1="644.9227367384472" x2="230.67915699692992" y2="654.9341110196822" style="stroke: #000000; stroke-width: 1.889763779527559;" />
<line x1="231.36465025622562" y1="642.4046988515968" x2="225.8675962943774" y2="652.321646712075" style="stroke: #000000; stroke-width: 1.889763779527559;" />
<text nox="205.15795497582795" noy="659.9282433296997" transform="translate( 205.15795497582795,659.9282433296997) rotate(211.5) " fill="#000000" font-family="monospace" font-size="8pt">210</text>
<line x1="226.7716535433071" y1="639.8061063411216" x2="217.32283464566933" y2="656.1719407433472" style="stroke: #000000; stroke-width: 1.889763779527559;" />
<line x1="222.22470805869222" y1="637.1277507634733" x2="216.38490626443647" y2="646.8468130706469" style="stroke: #000000; stroke-width: 1.889763779527559;" />
<line x1="217.7251988460231" y1="634.3704479717067" x2="211.71666545629225" y2="643.9861114241891" style="stroke: #000000; stroke-width: 1.889763779527559;" />
<line x1="213.27449649939336" y1="631.5350378669627" x2="207.09906177166388" y2="641.0443734405172" style="stroke: #000000; stroke-width: 1.889763779527559;" />
<line x1="208.87395674585295" y1="628.6223841426267" x2="202.5335017773657" y2="638.0224952015185" style="stroke: #000000; stroke-width: 1.889763779527559;" />
<text nox="181.2397083184541" noy="643.7951822513631" transform="translate( 181.2397083184541,643.7951822513631) rotate(216.5) " fill="#000000" font-family="monospace" font-size="8pt">215</text>
<line x1="204.52492003243955" y1="625.6333740212383" x2="195.8535282387859" y2="638.0174049270247" style="stroke: #000000; stroke-width: 1.889763779527559;" />
<line x1="200.2287111178664" y1="622.568917984236" x2="193.56405943832968" y2="631.7420240621882" style="stroke: #000000; stroke-width: 1.889763779527559;" />
<line x1="195.98663866898693" y1="619.4299494946144" x2="189.1629092726172" y2="628.4853442542058" style="stroke: #000000; stroke-width: 1.889763779527559;" />
<line x1="191.79999486216312" y1="616.2174247125836" x2="184.81926632303754" y2="625.1523497928488" style="stroke: #000000; stroke-width: 1.889763779527559;" />
<line x1="187.67005498965548" y1="612.9323222043124" x2="180.53445370531082" y2="621.7440559405175" style="stroke: #000000; stroke-width: 1.889763779527559;" />
<text nox="158.8185667318033" noy="625.6388997884887" transform="translate( 158.8185667318033,625.6388997884887) rotate(221.5) " fill="#000000" font-family="monospace" font-size="8pt">220</text>
<line x1="183.59807707115658" y1="609.5756426438484" x2="171.45090964400936" y2="624.0520730649945" style="stroke: #000000; stroke-width: 1.889763779527559;" />
<line x1="179.58530147058678" y1="606.1484085083027" x2="172.14652192927707" y2="614.7057454809074" style="stroke: #000000; stroke-width: 1.889763779527559;" />
<line x1="175.63295051826645" y1="602.6516637663931" x2="168.04595781624474" y2="611.0778728111762" style="stroke: #000000; stroke-width: 1.889763779527559;" />
<line x1="171.74222813858313" y1="599.0864735604421" x2="164.0093333473233" y2="607.3789879725019" style="stroke: #000000; stroke-width: 1.889763779527559;" />
<line x1="167.91431948326377" y1="595.4539238819227" x2="160.03787811742944" y2="603.6102176810382" style="stroke: #000000; stroke-width: 1.889763779527559;" />
<text nox="138.06516864160565" noy="605.5975762136823" transform="translate( 138.06516864160565,605.5975762136823) rotate(226.5) " fill="#000000" font-family="monospace" font-size="8pt">225</text>
<line x1="164.1503905703667" y1="591.7551212406569" x2="153.46027230360946" y2="602.4452395074142" style="stroke: #000000; stroke-width: 1.889763779527559;" />
<line x1="160.45158792910073" y1="587.9911923277597" x2="152.29529412998528" y2="595.867633693594" style="stroke: #000000; stroke-width: 1.889763779527559;" />
<line x1="156.8190382505815" y1="584.1632836724405" x2="148.5265238385216" y2="591.8961784637003" style="stroke: #000000; stroke-width: 1.889763779527559;" />
<line x1="153.25384804463044" y1="580.2725612927571" x2="144.82763899984735" y2="587.8595539947788" style="stroke: #000000; stroke-width: 1.889763779527559;" />
<line x1="149.75710330272088" y1="576.3202103404368" x2="141.19976633011618" y2="583.7589898817465" style="stroke: #000000; stroke-width: 1.889763779527559;" />
<text nox="119.1374599385718" noy="583.8237381006301" transform="translate( 119.1374599385718,583.8237381006301) rotate(231.5) " fill="#000000" font-family="monospace" font-size="8pt">230</text>
<line x1="146.32986916717516" y1="572.307434739867" x2="131.8534387460291" y2="584.4546021670142" style="stroke: #000000; stroke-width: 1.889763779527559;" />
<line x1="142.97318960671114" y1="568.2354568213681" x2="134.16145587050607" y2="575.3710581057128" style="stroke: #000000; stroke-width: 1.889763779527559;" />
<line x1="139.68808709843998" y1="564.1055169488604" x2="130.75316201817475" y2="571.086245487986" style="stroke: #000000; stroke-width: 1.889763779527559;" />
<line x1="136.47556231640903" y1="559.9188731420365" x2="127.42016755681766" y2="566.7426025384062" style="stroke: #000000; stroke-width: 1.889763779527559;" />
<line x1="133.33659382678755" y1="555.6768006931572" x2="124.16348774883537" y2="562.341452372694" style="stroke: #000000; stroke-width: 1.889763779527559;" />
<text nox="102.17949191479477" noy="560.4830975047751" transform="translate( 102.17949191479477,560.4830975047751) rotate(236.5) " fill="#000000" font-family="monospace" font-size="8pt">235</text>
<line x1="130.2721377897851" y1="551.380591778584" x2="117.88810688399872" y2="560.0519835722375" style="stroke: #000000; stroke-width: 1.889763779527559;" />
<line x1="127.28312766839684" y1="547.0315550651707" x2="117.88301660950498" y2="553.372010033658" style="stroke: #000000; stroke-width: 1.889763779527559;" />
<line x1="124.37047394406076" y1="542.6310153116302" x2="114.8611383705063" y2="548.8064500393597" style="stroke: #000000; stroke-width: 1.889763779527559;" />
<line x1="121.53506383931688" y1="538.1803129650004" x2="111.91940038683452" y2="544.1888463547314" style="stroke: #000000; stroke-width: 1.889763779527559;" />
<line x1="118.77776104755031" y1="533.6808037523314" x2="109.05869874037671" y2="539.5206055465871" style="stroke: #000000; stroke-width: 1.889763779527559;" />
<text nox="87.3203249464367" noy="535.7532907945161" transform="translate( 87.3203249464367,535.7532907945161) rotate(241.5) " fill="#000000" font-family="monospace" font-size="8pt">240</text>
<line x1="116.09940546990197" y1="529.1338582677165" x2="99.73357106767634" y2="538.5826771653542" style="stroke: #000000; stroke-width: 1.889763779527559;" />
<line x1="113.50081295942675" y1="524.540861554798" x2="103.58386509894854" y2="530.0379155166462" style="stroke: #000000; stroke-width: 1.889763779527559;" />
<line x1="110.98277507257637" y1="519.9032126848676" x2="100.9714007913413" y2="525.2263548140936" style="stroke: #000000; stroke-width: 1.889763779527559;" />
<line x1="108.54605882808403" y1="515.2223243306976" x2="98.44330768768049" y2="520.3699331466421" style="stroke: #000000; stroke-width: 1.889763779527559;" />
<line x1="106.19140647332267" y1="510.4996223362249" x2="96.00035586961559" y2="515.4701298273767" style="stroke: #000000; stroke-width: 1.889763779527559;" />
<text nox="74.67304626633694" noy="509.8225267311837" transform="translate( 74.67304626633694,509.8225267311837) rotate(246.5) " fill="#000000" font-family="monospace" font-size="8pt">245</text>
<line x1="103.91953525820975" y1="505.7365452822272" x2="90.21787422584464" y2="512.125734751063" style="stroke: #000000; stroke-width: 1.889763779527559;" />
<line x1="101.73113721672541" y1="500.934544048116" x2="91.3728265158959" y2="505.54636110346365" style="stroke: #000000; stroke-width: 1.889763779527559;" />
<line x1="99.62687895611248" y1="496.0950813699851" x2="89.18965857051" y2="500.52541857490286" style="stroke: #000000; stroke-width: 1.889763779527559;" />
<line x1="97.60740145382175" y1="491.21963139504743" x2="87.09445066188334" y2="495.46713922590504" style="stroke: #000000; stroke-width: 1.889763779527559;" />
<line x1="95.67331986226338" y1="486.30967923259465" x2="85.08784101064151" y2="490.3730638573603" style="stroke: #000000; stroke-width: 1.889763779527559;" />
<text nox="64.33390930188682" noy="482.8881540867233" transform="translate( 64.33390930188682,482.8881540867233) rotate(251.5) " fill="#000000" font-family="monospace" font-size="8pt">250</text>
<line x1="93.82522332142611" y1="481.3667205016195" x2="76.06725253492073" y2="487.83009328887624" style="stroke: #000000; stroke-width: 1.889763779527559;" />
<line x1="92.06367477941916" y1="476.3922608752347" x2="81.34283423719063" y2="480.0837423115993" style="stroke: #000000; stroke-width: 1.889763779527559;" />
<line x1="90.3892108209929" y1="471.3878156220313" x2="79.60557788032344" y2="474.8916303614008" style="stroke: #000000; stroke-width: 1.889763779527559;" />
<line x1="88.80234150409001" y1="466.3549091445124" x2="77.95920096403665" y2="469.669989890975" style="stroke: #000000; stroke-width: 1.889763779527559;" />
<line x1="87.30355020447678" y1="461.29507451474615" x2="76.40420499068796" y2="464.4204114625925" style="stroke: #000000; stroke-width: 1.889763779527559;" />
<text nox="56.38160112832742" noy="455.15515970037814" transform="translate( 56.38160112832742,455.15515970037814) rotate(256.5) " fill="#000000" font-family="monospace" font-size="8pt">255</text>
<line x1="85.89329346850218" y1="456.2098530073764" x2="71.2903203466517" y2="460.1227078624696" style="stroke: #000000; stroke-width: 1.889763779527559;" />
<line x1="84.57200087402941" y1="451.1007936301357" x2="73.57022256034878" y2="453.8438450448091" style="stroke: #000000; stroke-width: 1.889763779527559;" />
<line x1="83.34007489958242" y1="445.96945265200327" x2="72.29209936186004" y2="448.5200787799967" style="stroke: #000000; stroke-width: 1.889763779527559;" />
<line x1="82.1978908017469" y1="440.8173931291492" x2="71.10708336035572" y2="443.1748170250356" style="stroke: #000000; stroke-width: 1.889763779527559;" />
<line x1="81.14579650086381" y1="435.64618442881357" x2="70.01553552318944" y2="437.80968799843737" style="stroke: #000000; stroke-width: 1.889763779527559;" />
<text nox="50.87664361259442" noy="426.8346084050681" transform="translate( 50.87664361259442,426.8346084050681) rotate(261.5) " fill="#000000" font-family="monospace" font-size="8pt">260</text>
<line x1="80.18411247504889" y1="430.45740175126076" x2="61.57357226064494" y2="433.7389421166201" style="stroke: #000000; stroke-width: 1.889763779527559;" />
<line x1="79.31313166257252" y1="425.25262564995955" x2="68.11414575346225" y2="427.0263707653763" style="stroke: #000000; stroke-width: 1.889763779527559;" />
<line x1="78.53311937262754" y1="420.03344155012996" x2="67.30488300264432" y2="421.6114672618031" style="stroke: #000000; stroke-width: 1.889763779527559;" />
<line x1="77.84431320451364" y1="414.8014392658083" x2="66.5902466032262" y2="416.1832648918195" style="stroke: #000000; stroke-width: 1.889763779527559;" />
<line x1="77.24692297526224" y1="409.558212515574" x2="65.97045424037782" y2="410.7434171384513" style="stroke: #000000; stroke-width: 1.889763779527559;" />
<text nox="47.860932805366815" noy="398.1420366965667" transform="translate( 47.860932805366815,398.1420366965667) rotate(266.5) " fill="#000000" font-family="monospace" font-size="8pt">265</text>
<line x1="76.74113065572413" y1="404.30535843708714" x2="61.68054939323474" y2="405.6229885636659" style="stroke: #000000; stroke-width: 1.889763779527559;" />
<line x1="76.32709031513974" y1="399.04447710058594" x2="65.01612785550077" y2="399.8354166454012" style="stroke: #000000; stroke-width: 1.889763779527559;" />
<line x1="76.00492807420756" y1="393.77717102148847" x2="64.68188453053364" y2="394.3705865883376" style="stroke: #000000; stroke-width: 1.889763779527559;" />
<line x1="75.7747420666671" y1="388.50504467225227" x2="64.44306654771037" y2="388.90075550100505" style="stroke: #000000; stroke-width: 1.889763779527559;" />
<line x1="75.63660240940607" y1="383.22970399363527" x2="64.29974665330207" y2="383.4275895469399" style="stroke: #000000; stroke-width: 1.889763779527559;" />
<text nox="47.357420086823595" noy="369.29581237062456" transform="translate( 47.357420086823595,369.29581237062456) rotate(271.5) " fill="#000000" font-family="monospace" font-size="8pt">270</text>
<line x1="75.59055118110234" y1="377.9527559055118" x2="56.69291338582673" y2="377.9527559055118" style="stroke: #000000; stroke-width: 1.889763779527559;" />
<line x1="75.63660240940607" y1="372.6758078173882" x2="64.29974665330207" y2="372.4779222640836" style="stroke: #000000; stroke-width: 1.889763779527559;" />
<line x1="75.7747420666671" y1="367.4004671387713" x2="64.44306654771037" y2="367.0047563100186" style="stroke: #000000; stroke-width: 1.889763779527559;" />
<line x1="76.00492807420756" y1="362.1283407895351" x2="64.68188453053364" y2="361.534925222686" style="stroke: #000000; stroke-width: 1.889763779527559;" />
<line x1="76.32709031513974" y1="356.86103471043765" x2="65.01612785550077" y2="356.0700951656224" style="stroke: #000000; stroke-width: 1.889763779527559;" />
<text nox="49.36993749278213" noy="340.5154726121883" transform="translate( 49.36993749278213,340.5154726121883) rotate(276.5) " fill="#000000" font-family="monospace" font-size="8pt">275</text>
<line x1="76.74113065572413" y1="351.60015337393645" x2="61.68054939323474" y2="350.2825232473577" style="stroke: #000000; stroke-width: 1.889763779527559;" />
<line x1="77.24692297526224" y1="346.3472992954496" x2="65.97045424037782" y2="345.16209467257227" style="stroke: #000000; stroke-width: 1.889763779527559;" />
<line x1="77.84431320451364" y1="341.1040725452153" x2="66.59024660322615" y2="339.7222469192041" style="stroke: #000000; stroke-width: 1.889763779527559;" />
<line x1="78.53311937262754" y1="335.8720702608935" x2="67.30488300264437" y2="334.29404454922036" style="stroke: #000000; stroke-width: 1.889763779527559;" />
<line x1="79.31313166257252" y1="330.65288616106403" x2="68.11414575346225" y2="328.87914104564726" style="stroke: #000000; stroke-width: 1.889763779527559;" />
<text nox="53.88316855059173" noy="312.02005318486397" transform="translate( 53.88316855059173,312.02005318486397) rotate(281.5) " fill="#000000" font-family="monospace" font-size="8pt">280</text>
<line x1="80.18411247504889" y1="325.4481100597627" x2="61.57357226064494" y2="322.1665696944034" style="stroke: #000000; stroke-width: 1.889763779527559;" />
<line x1="81.14579650086381" y1="320.2593273822101" x2="70.01553552318944" y2="318.0958238125862" style="stroke: #000000; stroke-width: 1.889763779527559;" />
<line x1="82.19789080174695" y1="315.0881186818742" x2="71.10708336035572" y2="312.73069478598785" style="stroke: #000000; stroke-width: 1.889763779527559;" />
<line x1="83.34007489958242" y1="309.9360591590203" x2="72.29209936185998" y2="307.3854330310269" style="stroke: #000000; stroke-width: 1.889763779527559;" />
<line x1="84.57200087402941" y1="304.8047181808879" x2="73.57022256034878" y2="302.0616667662145" style="stroke: #000000; stroke-width: 1.889763779527559;" />
<text nox="60.86276484673931" noy="284.02642143649797" transform="translate( 60.86276484673931,284.02642143649797) rotate(286.5) " fill="#000000" font-family="monospace" font-size="8pt">285</text>
<line x1="85.89329346850218" y1="299.69565880364723" x2="71.29032034665164" y2="295.782803948554" style="stroke: #000000; stroke-width: 1.889763779527559;" />
<line x1="87.30355020447678" y1="294.61043729627744" x2="76.40420499068796" y2="291.48510034843116" style="stroke: #000000; stroke-width: 1.889763779527559;" />
<line x1="88.80234150409007" y1="289.55060266651105" x2="77.95920096403671" y2="286.23552192004854" style="stroke: #000000; stroke-width: 1.889763779527559;" />
<line x1="90.3892108209929" y1="284.51769618899226" x2="79.60557788032338" y2="281.0138814496228" style="stroke: #000000; stroke-width: 1.889763779527559;" />
<line x1="92.06367477941916" y1="279.5132509357888" x2="81.34283423719069" y2="275.82176949942414" style="stroke: #000000; stroke-width: 1.889763779527559;" />
<text nox="70.25560743901553" noy="256.74762580771267" transform="translate( 70.25560743901553,256.74762580771267) rotate(291.5) " fill="#000000" font-family="monospace" font-size="8pt">290</text>
<line x1="93.82522332142611" y1="274.5387913094041" x2="76.06725253492073" y2="268.07541852214734" style="stroke: #000000; stroke-width: 1.889763779527559;" />
<line x1="95.67331986226338" y1="269.5958325784288" x2="85.08784101064151" y2="265.53244795366317" style="stroke: #000000; stroke-width: 1.889763779527559;" />
<line x1="97.60740145382175" y1="264.68588041597616" x2="87.09445066188334" y2="260.4383725851186" style="stroke: #000000; stroke-width: 1.889763779527559;" />
<line x1="99.62687895611248" y1="259.81043044103853" x2="89.18965857051" y2="255.38009323612076" style="stroke: #000000; stroke-width: 1.889763779527559;" />
<line x1="101.73113721672536" y1="254.9709677629076" x2="91.37282651589584" y2="250.35915070755993" style="stroke: #000000; stroke-width: 1.889763779527559;" />
<text nox="81.9902111237397" noy="230.39127440463014" transform="translate( 81.9902111237397,230.39127440463014) rotate(296.5) " fill="#000000" font-family="monospace" font-size="8pt">295</text>
<line x1="103.91953525820975" y1="250.1689665287964" x2="90.21787422584458" y2="243.77977705996062" style="stroke: #000000; stroke-width: 1.889763779527559;" />
<line x1="106.19140647332273" y1="245.40588947479858" x2="96.00035586961559" y2="240.43538198364683" style="stroke: #000000; stroke-width: 1.889763779527559;" />
<line x1="108.54605882808403" y1="240.683187480326" x2="98.44330768768043" y2="235.53557866438152" style="stroke: #000000; stroke-width: 1.889763779527559;" />
<line x1="110.98277507257643" y1="236.0022991261558" x2="100.9714007913413" y2="230.67915699692995" style="stroke: #000000; stroke-width: 1.889763779527559;" />
<line x1="113.50081295942675" y1="231.36465025622564" x2="103.58386509894854" y2="225.8675962943774" style="stroke: #000000; stroke-width: 1.889763779527559;" />
<text nox="95.97726848132379" noy="205.15795497582798" transform="translate( 95.97726848132379,205.15795497582798) rotate(301.5) " fill="#000000" font-family="monospace" font-size="8pt">300</text>
<line x1="116.09940546990202" y1="226.77165354330702" x2="99.7335710676764" y2="217.32283464566922" style="stroke: #000000; stroke-width: 1.889763779527559;" />
<line x1="118.77776104755026" y1="222.22470805869224" x2="109.05869874037666" y2="216.3849062644365" style="stroke: #000000; stroke-width: 1.889763779527559;" />
<line x1="121.53506383931682" y1="217.7251988460231" x2="111.91940038683447" y2="211.71666545629225" style="stroke: #000000; stroke-width: 1.889763779527559;" />
<line x1="124.37047394406073" y1="213.27449649939336" x2="114.8611383705063" y2="207.09906177166388" style="stroke: #000000; stroke-width: 1.889763779527559;" />
<line x1="127.28312766839676" y1="208.87395674585295" x2="117.88301660950492" y2="202.5335017773657" style="stroke: #000000; stroke-width: 1.889763779527559;" />
<text nox="112.11032955966033" noy="181.2397083184541" transform="translate( 112.11032955966033,181.2397083184541) rotate(306.5) " fill="#000000" font-family="monospace" font-size="8pt">305</text>
<line x1="130.27213778978512" y1="204.52492003243955" x2="117.88810688399877" y2="195.8535282387859" style="stroke: #000000; stroke-width: 1.889763779527559;" />
<line x1="133.3365938267875" y1="200.2287111178664" x2="124.16348774883528" y2="193.56405943832968" style="stroke: #000000; stroke-width: 1.889763779527559;" />
<line x1="136.47556231640908" y1="195.98663866898693" x2="127.42016755681769" y2="189.1629092726172" style="stroke: #000000; stroke-width: 1.889763779527559;" />
<line x1="139.68808709843992" y1="191.79999486216317" x2="130.75316201817472" y2="184.81926632303757" style="stroke: #000000; stroke-width: 1.889763779527559;" />
<line x1="142.97318960671117" y1="187.67005498965537" x2="134.1614558705061" y2="180.53445370531074" style="stroke: #000000; stroke-width: 1.889763779527559;" />
<text nox="130.26661202253473" noy="158.81856673180334" transform="translate( 130.26661202253473,158.81856673180334) rotate(311.5) " fill="#000000" font-family="monospace" font-size="8pt">310</text>
<line x1="146.32986916717513" y1="183.5980770711566" x2="131.85343874602907" y2="171.45090964400939" style="stroke: #000000; stroke-width: 1.889763779527559;" />
<line x1="149.75710330272085" y1="179.5853014705868" x2="141.19976633011615" y2="172.1465219292771" style="stroke: #000000; stroke-width: 1.889763779527559;" />
<line x1="153.2538480446304" y1="175.63295051826645" x2="144.8276389998473" y2="168.04595781624474" style="stroke: #000000; stroke-width: 1.889763779527559;" />
<line x1="156.81903825058146" y1="171.74222813858313" x2="148.52652383852157" y2="164.0093333473233" style="stroke: #000000; stroke-width: 1.889763779527559;" />
<line x1="160.45158792910075" y1="167.91431948326377" x2="152.2952941299853" y2="160.03787811742944" style="stroke: #000000; stroke-width: 1.889763779527559;" />
<text nox="150.30793559734119" noy="138.06516864160565" transform="translate( 150.30793559734119,138.06516864160565) rotate(316.5) " fill="#000000" font-family="monospace" font-size="8pt">315</text>
<line x1="164.15039057036665" y1="164.1503905703667" x2="153.46027230360937" y2="153.46027230360946" style="stroke: #000000; stroke-width: 1.889763779527559;" />
<line x1="167.9143194832638" y1="160.45158792910073" x2="160.03787811742947" y2="152.29529412998528" style="stroke: #000000; stroke-width: 1.889763779527559;" />
<line x1="171.74222813858307" y1="156.8190382505815" x2="164.00933334732323" y2="148.5265238385216" style="stroke: #000000; stroke-width: 1.889763779527559;" />
<line x1="175.63295051826648" y1="153.25384804463033" x2="168.04595781624477" y2="144.82763899984727" style="stroke: #000000; stroke-width: 1.889763779527559;" />
<line x1="179.58530147058676" y1="149.75710330272088" x2="172.14652192927704" y2="141.19976633011618" style="stroke: #000000; stroke-width: 1.889763779527559;" />
<text nox="172.0817737103935" noy="119.1374599385718" transform="translate( 172.0817737103935,119.1374599385718) rotate(321.5) " fill="#000000" font-family="monospace" font-size="8pt">320</text>
<line x1="183.59807707115655" y1="146.32986916717516" x2="171.45090964400933" y2="131.8534387460291" style="stroke: #000000; stroke-width: 1.889763779527559;" />
<line x1="187.6700549896553" y1="142.97318960671123" x2="180.53445370531065" y2="134.1614558705062" style="stroke: #000000; stroke-width: 1.889763779527559;" />
<line x1="191.7999948621632" y1="139.6880870984399" x2="184.8192663230376" y2="130.75316201817466" style="stroke: #000000; stroke-width: 1.889763779527559;" />
<line x1="195.98663866898696" y1="136.47556231640908" x2="189.16290927261724" y2="127.42016755681769" style="stroke: #000000; stroke-width: 1.889763779527559;" />
<line x1="200.22871111786634" y1="133.33659382678755" x2="193.5640594383296" y2="124.16348774883537" style="stroke: #000000; stroke-width: 1.889763779527559;" />
<text nox="195.42241430624838" noy="102.17949191479477" transform="translate( 195.42241430624838,102.17949191479477) rotate(326.5) " fill="#000000" font-family="monospace" font-size="8pt">325</text>
<line x1="204.5249200324395" y1="130.2721377897852" x2="195.85352823878586" y2="117.88810688399883" style="stroke: #000000; stroke-width: 1.889763779527559;" />
<line x1="208.87395674585298" y1="127.28312766839676" x2="202.53350177736576" y2="117.88301660950492" style="stroke: #000000; stroke-width: 1.889763779527559;" />
<line x1="213.2744964993934" y1="124.37047394406073" x2="207.09906177166394" y2="114.8611383705063" style="stroke: #000000; stroke-width: 1.889763779527559;" />
<line x1="217.725198846023" y1="121.53506383931688" x2="211.71666545629216" y2="111.91940038683452" style="stroke: #000000; stroke-width: 1.889763779527559;" />
<line x1="222.22470805869216" y1="118.77776104755031" x2="216.3849062644364" y2="109.05869874037677" style="stroke: #000000; stroke-width: 1.889763779527559;" />
<text nox="220.15222101650735" noy="87.3203249464367" transform="translate( 220.15222101650735,87.3203249464367) rotate(331.5) " fill="#000000" font-family="monospace" font-size="8pt">330</text>
<line x1="226.7716535433069" y1="116.09940546990208" x2="217.3228346456691" y2="99.73357106767645" style="stroke: #000000; stroke-width: 1.889763779527559;" />
<line x1="231.36465025622567" y1="113.5008129594267" x2="225.86759629437742" y2="103.58386509894848" style="stroke: #000000; stroke-width: 1.889763779527559;" />
<line x1="236.00229912615583" y1="110.98277507257637" x2="230.67915699692998" y2="100.9714007913413" style="stroke: #000000; stroke-width: 1.889763779527559;" />
<line x1="240.68318748032593" y1="108.54605882808403" x2="235.53557866438146" y2="98.44330768768049" style="stroke: #000000; stroke-width: 1.889763779527559;" />
<line x1="245.4058894747985" y1="106.19140647332279" x2="240.43538198364675" y2="96.00035586961565" style="stroke: #000000; stroke-width: 1.889763779527559;" />
<text nox="246.0829850798397" noy="74.67304626633694" transform="translate( 246.0829850798397,74.67304626633694) rotate(336.5) " fill="#000000" font-family="monospace" font-size="8pt">335</text>
<line x1="250.16896652879643" y1="103.91953525820975" x2="243.77977705996065" y2="90.21787422584458" style="stroke: #000000; stroke-width: 1.889763779527559;" />
<line x1="254.97096776290766" y1="101.73113721672536" x2="250.35915070756" y2="91.37282651589584" style="stroke: #000000; stroke-width: 1.889763779527559;" />
<line x1="259.8104304410384" y1="99.62687895611253" x2="255.38009323612067" y2="89.18965857051" style="stroke: #000000; stroke-width: 1.889763779527559;" />
<line x1="264.6858804159761" y1="97.60740145382175" x2="260.4383725851185" y2="87.09445066188334" style="stroke: #000000; stroke-width: 1.889763779527559;" />
<line x1="269.5958325784287" y1="95.67331986226344" x2="265.5324479536631" y2="85.08784101064157" style="stroke: #000000; stroke-width: 1.889763779527559;" />
<text nox="273.01735772430004" noy="64.33390930188688" transform="translate( 273.01735772430004,64.33390930188688) rotate(341.5) " fill="#000000" font-family="monospace" font-size="8pt">340</text>
<line x1="274.53879130940413" y1="93.82522332142611" x2="268.0754185221474" y2="76.06725253492073" style="stroke: #000000; stroke-width: 1.889763779527559;" />
<line x1="279.51325093578885" y1="92.06367477941916" x2="275.8217694994242" y2="81.34283423719063" style="stroke: #000000; stroke-width: 1.889763779527559;" />
<line x1="284.5176961889922" y1="90.3892108209929" x2="281.0138814496227" y2="79.60557788032344" style="stroke: #000000; stroke-width: 1.889763779527559;" />
<line x1="289.55060266651094" y1="88.80234150409007" x2="286.2355219200484" y2="77.95920096403671" style="stroke: #000000; stroke-width: 1.889763779527559;" />
<line x1="294.6104372962775" y1="87.30355020447678" x2="291.48510034843116" y2="76.4042049906879" style="stroke: #000000; stroke-width: 1.889763779527559;" />
<text nox="300.7503521106455" noy="56.38160112832742" transform="translate( 300.7503521106455,56.38160112832742) rotate(346.5) " fill="#000000" font-family="monospace" font-size="8pt">345</text>
<line x1="299.69565880364723" y1="85.89329346850218" x2="295.78280394855403" y2="71.29032034665164" style="stroke: #000000; stroke-width: 1.889763779527559;" />
<line x1="304.8047181808878" y1="84.57200087402941" x2="302.0616667662144" y2="73.57022256034878" style="stroke: #000000; stroke-width: 1.889763779527559;" />
<line x1="309.93605915902026" y1="83.34007489958242" x2="307.38543303102676" y2="72.29209936186004" style="stroke: #000000; stroke-width: 1.889763779527559;" />
<line x1="315.08811868187416" y1="82.19789080174695" x2="312.73069478598774" y2="71.10708336035572" style="stroke: #000000; stroke-width: 1.889763779527559;" />
<line x1="320.2593273822101" y1="81.14579650086381" x2="318.0958238125863" y2="70.01553552318944" style="stroke: #000000; stroke-width: 1.889763779527559;" />
<text nox="329.07090340595556" noy="50.87664361259442" transform="translate( 329.07090340595556,50.87664361259442) rotate(351.5) " fill="#000000" font-family="monospace" font-size="8pt">350</text>
<line x1="325.44811005976277" y1="80.18411247504889" x2="322.16656969440345" y2="61.57357226064494" style="stroke: #000000; stroke-width: 1.889763779527559;" />
<line x1="330.652886161064" y1="79.31313166257252" x2="328.87914104564715" y2="68.11414575346225" style="stroke: #000000; stroke-width: 1.889763779527559;" />
<line x1="335.87207026089345" y1="78.53311937262754" x2="334.29404454922025" y2="67.30488300264437" style="stroke: #000000; stroke-width: 1.889763779527559;" />
<line x1="341.10407254521533" y1="77.84431320451364" x2="339.72224691920417" y2="66.59024660322615" style="stroke: #000000; stroke-width: 1.889763779527559;" />
<line x1="346.34729929544966" y1="77.24692297526218" x2="345.1620946725723" y2="65.97045424037782" style="stroke: #000000; stroke-width: 1.889763779527559;" />
<text nox="357.76347511445675" noy="47.860932805366815" transform="translate( 357.76347511445675,47.860932805366815) rotate(356.5) " fill="#000000" font-family="monospace" font-size="8pt">355</text>
<line x1="351.60015337393634" y1="76.74113065572413" x2="350.2825232473576" y2="61.68054939323474" style="stroke: #000000; stroke-width: 1.889763779527559;" />
<line x1="356.8610347104376" y1="76.32709031513974" x2="356.0700951656223" y2="65.01612785550077" style="stroke: #000000; stroke-width: 1.889763779527559;" />
<line x1="362.1283407895349" y1="76.00492807420756" x2="361.5349252226858" y2="64.68188453053364" style="stroke: #000000; stroke-width: 1.889763779527559;" />
<line x1="367.4004671387714" y1="75.7747420666671" x2="367.0047563100186" y2="64.44306654771037" style="stroke: #000000; stroke-width: 1.889763779527559;" />
<line x1="372.67580781738826" y1="75.63660240940607" x2="372.47792226408365" y2="64.29974665330207" style="stroke: #000000; stroke-width: 1.889763779527559;" />
<circle cx="377.95275590551176" cy="377.95275590551176" r="302.3622047244094" style="fill: none; stroke: #000000; stroke-width: 1.889763779527559"  />
<circle cx="377.95275590551176" cy="377.95275590551176" r="340.1574803149606" style="fill: none; stroke: #000000; stroke-width: 1.889763779527559"  />
<line x1="377.95275590551176" y1="377.95275590551176" x2="377.95275590551176" y2="75.59055118110234" style="stroke: #0000ff; stroke-width: 1.889763779527559;" />
<line x1="415.74803149606294" y1="377.95275590551176" x2="415.74803149606294" y2="77.96205606826686" style="stroke: #0000ff; stroke-width: 1.889763779527559;" />
<line x1="453.54330708661416" y1="377.95275590551176" x2="453.54330708661416" y2="85.191810050463" style="stroke: #0000ff; stroke-width: 1.889763779527559;" />
<line x1="491.33858267716533" y1="377.95275590551176" x2="491.33858267716533" y2="97.65549025150244" style="stroke: #0000ff; stroke-width: 1.889763779527559;" />
<line x1="529.1338582677165" y1="377.95275590551176" x2="529.1338582677165" y2="116.09940546990208" style="stroke: #0000ff; stroke-width: 1.889763779527559;" />
<line x1="566.9291338582676" y1="377.95275590551176" x2="566.9291338582676" y2="141.92133549360392" style="stroke: #0000ff; stroke-width: 1.889763779527559;" />
<line x1="604.7244094488188" y1="377.95275590551176" x2="604.7244094488188" y2="177.95895601401514" style="stroke: #0000ff; stroke-width: 1.889763779527559;" />
<line x1="642.5196850393701" y1="377.95275590551176" x2="642.5196850393701" y2="231.57228297798736" style="stroke: #0000ff; stroke-width: 1.889763779527559;" />
<line x1="377.95275590551176" y1="377.95275590551176" x2="680.3149606299212" y2="377.95275590551176" style="stroke: #0000ff; stroke-width: 1.889763779527559;" />
<line x1="377.95275590551176" y1="340.1574803149606" x2="677.9434557427567" y2="340.1574803149606" style="stroke: #0000ff; stroke-width: 1.889763779527559;" />
<line x1="377.95275590551176" y1="302.36220472440937" x2="670.7137017605605" y2="302.36220472440937" style="stroke: #0000ff; stroke-width: 1.889763779527559;" />
<line x1="377.95275590551176" y1="264.5669291338582" x2="658.2500215595211" y2="264.5669291338582" style="stroke: #0000ff; stroke-width: 1.889763779527559;" />
<line x1="377.95275590551176" y1="226.77165354330702" x2="639.8061063411214" y2="226.77165354330702" style="stroke: #0000ff; stroke-width: 1.889763779527559;" />
<line x1="377.95275590551176" y1="188.9763779527559" x2="613.9841763174196" y2="188.9763779527559" style="stroke: #0000ff; stroke-width: 1.889763779527559;" />
<line x1="377.95275590551176" y1="151.18110236220468" x2="577.9465557970084" y2="151.18110236220468" style="stroke: #0000ff; stroke-width: 1.889763779527559;" />
<line x1="377.95275590551176" y1="113.38582677165346" x2="524.3332288330362" y2="113.38582677165346" style="stroke: #0000ff; stroke-width: 1.889763779527559;" />
<line x1="226.77165354330708" y1="302.36220472440937" x2="529.1338582677165" y2="529.1338582677165" style="stroke: #cc44cc; stroke-width: 11.338582677165354;" />
<text nox="524.941882073424" noy="230.96362973759955" transform="translate( 524.941882073424,230.96362973759955) rotate(45) " fill="#ff0000" font-family="monospace" font-size="12pt">XiX</text>
<line x1="377.95275590551176" y1="377.95275590551176" x2="511.57923423997744" y2="244.32627757104612" style="stroke: #00ff00; stroke-width: 7.559055118110236;" />
<line x1="377.95275590551176" y1="377.95275590551176" x2="37.79527559055118" y2="491.33858267716533" style="stroke: #FA0000; stroke-width: 11.338582677165354;" />
<line x1="377.95275590551176" y1="377.95275590551176" x2="37.79527559055123" y2="491.33858267716545" style="stroke: #FAF700; stroke-width: 3.779527559055118;" />
<path fill="none" stroke="#FF00FF" stroke-width="7.559055118110236" d="M 565.0298255737637 565.0298255737637 A 264.56692913385825, 264.56692913385825, 0, 0, 0,  565.0298255737637, 190.87568623725986"></path>
<polygon points="226.77165354330708,529.1338582677165 264.56692913385825,529.1338582677165 264.56692913385825,491.3385826771653 226.77165354330708,491.3385826771653" style="fill: none; stroke:#770737; stroke-width: 3.779527559055118;" />
<polygon points="226.77165354330708,566.9291338582676 264.56692913385825,566.9291338582676 264.56692913385825,529.1338582677165 226.77165354330708,529.1338582677165" style="fill: #F33A6A; stroke:#0000cc; stroke-width: 3.779527559055118;" />
<circle cx="188.97637795275588" cy="188.9763779527559" r="37.79527559055118" style="fill: none; stroke: #0000ff; stroke-width: 7.559055118110236"  />
<circle cx="188.97637795275588" cy="264.5669291338582" r="37.79527559055118" style="fill: #00ccff; stroke: none;"  />
<circle cx="188.97637795275588" cy="340.1574803149606" r="37.79527559055118" style="fill: #0000cc; stroke: none;"  ><title>disk text</title></circle>
<text x="529.1338582677165" y="566.9291338582676" fill="#cc0000" font-family="monospace" font-size="24pt" text-anchor="end">PlainText</text>
<text x="529.1338582677165" y="566.9291338582676" fill="#cc00cc" font-family="monospace" font-size="12pt"  transform="rotate(66 529.1338582677165,566.9291338582676)">Rotated66</text>
<line x1="482.3249597615365" y1="333.6493838563343" x2="464.2720117457575" y2="339.520947110948" style="stroke: #ff4444; stroke-width: 3.779527559055118;" />
<line x1="377.95275590551176" y1="377.95275590551176" x2="452.60451260858133" y2="26.743853594791062" style="stroke: #cc4433; stroke-width: 3.779527559055118;" />
<path fill="none" stroke="#fafa00" stroke-width="3.779527559055118" d="M 601.4820873967784 601.4820873967784 A 75.59055118110236, 75.59055118110236, 0, 0, 0,  601.4820873967784, 494.5809047292058"></path>
<line x1="188.97637795275588" y1="718.1102362204723" x2="566.9291338582676" y2="718.1102362204723" style="stroke: #000000; stroke-width: 1.889763779527559;" />
<text x="548.0314960629921" y="604.7244094488188" fill="#cc0000" font-family="sans" font-size="24pt" text-anchor="end">PlainSans</text>
</svg>
